<?xml version="1.0" encoding="UTF-8" standalone="no"?>
<!-- Created with Inkscape (http://www.inkscape.org/) -->

<svg
   xmlns:dc="http://purl.org/dc/elements/1.1/"
   xmlns:cc="http://creativecommons.org/ns#"
   xmlns:rdf="http://www.w3.org/1999/02/22-rdf-syntax-ns#"
   xmlns:svg="http://www.w3.org/2000/svg"
   xmlns="http://www.w3.org/2000/svg"
   xmlns:sodipodi="http://sodipodi.sourceforge.net/DTD/sodipodi-0.dtd"
   xmlns:inkscape="http://www.inkscape.org/namespaces/inkscape"
   width="600"
   height="600"
   viewBox="0 0 600.00001 600.00001"
   id="svg2"
   version="1.1"
   inkscape:version="0.91 r13725"
   sodipodi:docname="logo.svg">
  <defs
     id="defs4" />
  <sodipodi:namedview
     id="base"
     pagecolor="#ffffff"
     bordercolor="#666666"
     borderopacity="1.0"
     inkscape:pageopacity="0.0"
     inkscape:pageshadow="2"
     inkscape:zoom="0.59"
     inkscape:cx="22.258034"
     inkscape:cy="273.60207"
     inkscape:document-units="px"
     inkscape:current-layer="layer1"
     showgrid="false"
     inkscape:window-width="1366"
     inkscape:window-height="715"
     inkscape:window-x="0"
     inkscape:window-y="0"
     inkscape:window-maximized="1"
     units="px"
     fit-margin-top="0"
     fit-margin-left="0"
     fit-margin-right="0"
     fit-margin-bottom="0" />
  <metadata
     id="metadata7">
    <rdf:RDF>
      <cc:Work
         rdf:about="">
        <dc:format>image/svg+xml</dc:format>
        <dc:type
           rdf:resource="http://purl.org/dc/dcmitype/StillImage" />
        <dc:title></dc:title>
      </cc:Work>
    </rdf:RDF>
  </metadata>
  <g
     inkscape:label="Layer 1"
     inkscape:groupmode="layer"
     id="layer1"
     transform="translate(-67.7966,-76.085327)">
    <circle
       style="fill:#cccccc"
       id="path6131"
       cx="367.7966"
       cy="376.08533"
       r="300" />
    <path
       style="fill:#999999"
       d="m 369.26284,101.747 c -0.0512,3.21971 -0.0856,7.06157 -0.0856,12.33572 l 0,14.53546 c -1.14071,-4.96779 -3.45025,-7.95809 -7.50166,-10.34849 -3.47909,-2.0527 -3.47891,-2.05224 -6.96402,1.15459 -5.40317,4.97167 -5.7649,16.71586 -0.79933,25.99413 0.62502,1.16777 0.88468,2.53251 0.57571,3.03239 -0.30889,0.49988 -0.11388,2.0879 0.43456,3.53037 0.9158,2.40879 1.48298,2.62321 6.94974,2.62321 7.57346,0 8.20322,-1.17924 8.22011,-15.39188 6.6e-4,-0.57685 -0.008,-1.1241 -0.0175,-1.67004 l 0.88815,1.95551 c 1.26813,2.79672 2.67959,4.69124 4.87846,6.54531 2.13967,1.80422 3.77165,3.96376 5.28923,6.99733 1.905,3.80781 2.19359,4.96518 2.18547,8.7641 -0.0131,6.09983 -0.39289,6.50808 -4.0823,4.3868 -1.63979,-0.94285 -4.39107,-2.78422 -6.11393,-4.09181 -1.72286,-1.3076 -3.31582,-2.37737 -3.53831,-2.37737 -0.2225,0 -0.40324,3.52911 -0.40284,7.84264 8.1e-4,8.61299 -0.31087,7.59086 5.15759,16.88429 1.65287,2.80889 4.2366,7.45853 5.74281,10.33422 3.19619,6.10251 3.72556,6.76049 7.99808,9.93296 5.11913,3.80112 18.26841,16.82469 20.71284,20.51459 1.22881,1.85492 3.19431,4.8275 4.36777,6.60718 1.17347,1.77966 3.39672,6.40361 4.94032,10.27552 1.5436,3.8719 3.69305,8.21722 4.77695,9.65542 1.0839,1.43822 4.53084,5.97475 7.66026,10.08046 3.12942,4.10573 5.69048,7.99608 5.69048,8.64515 0,1.77584 1.786,1.41661 2.51694,-0.50592 0.76389,-2.00918 0.35543,-4.61082 -1.56853,-10.00275 -1.93829,-5.43213 -3.28838,-17.0893 -4.02679,-34.75347 -0.33943,-8.1196 -0.78735,-16.69997 -0.9944,-19.06818 l -0.37588,-4.30593 -7.77128,-7.68881 c -4.27412,-4.22895 -9.80012,-9.59756 -12.27862,-11.9297 -6.6941,-6.29875 -8.67545,-11.7982 -8.70542,-24.15441 -0.006,-2.76134 -0.42306,-7.16564 -0.92462,-9.78704 -1.10963,-5.7995 -5.63476,-20.35371 -6.49299,-20.88413 -0.34088,-0.21067 -1.47842,-2.08384 -2.52804,-4.16318 -3.83882,-7.60453 -7.9924,-13.51786 -13.39038,-19.06183 -0.63717,-0.6544 -1.28312,-1.33833 -1.92062,-2.01737 a 274.57262,274.57262 0 0 0 -8.50241,-0.42504 z m 31.06132,2.0697 c 2.58213,4.27284 6.01873,8.25756 13.89157,16.39264 10.11993,10.45703 11.60336,12.41727 13.66951,18.06584 0.78783,2.15379 2.2723,6.02058 3.29883,8.59281 1.15595,2.89652 2.25028,7.34517 2.87538,11.68706 1.70571,11.84765 3.07355,16.53273 7.41443,25.39146 3.72794,7.60787 4.46527,8.66796 9.29382,13.39356 5.84411,5.71951 7.11624,7.75632 8.21218,13.13029 0.41396,2.02989 1.12433,4.58937 1.57804,5.68889 0.45373,1.09953 1.05956,1.99991 1.34649,1.99991 1.89231,0 10.22374,-11.53953 11.21919,-15.53938 2.01077,-8.07954 3.3745,-13.08087 5.01644,-18.39256 2.05896,-6.66071 2.96323,-11.96403 2.97054,-17.43144 0.002,-2.02991 0.45537,-6.89808 1.00709,-10.81794 l 1.00392,-7.12579 -1.64941,-5.7904 c -2.26514,-7.95293 -2.95643,-9.69225 -11.77746,-21.5534 a 274.57262,274.57262 0 0 0 -14.36259,-5.24323 c 0.92505,1.13074 1.66539,2.08172 1.97296,2.601 0.21658,0.36564 0.94918,3.20712 1.62721,6.31377 1.3707,6.28032 3.89365,11.32452 8.35491,16.70349 1.54327,1.86073 2.96327,3.9968 3.1561,4.74523 0.3799,1.47457 -0.8094,11.63089 -1.50826,12.87971 -0.32943,0.58867 -0.99267,0.50576 -2.88172,-0.35843 -8.03872,-3.67751 -12.87295,-10.63085 -14.45458,-20.79056 -0.81172,-5.21418 -2.84329,-11.49878 -4.62629,-14.31342 -2.60482,-4.11198 -10.07515,-10.80347 -16.34189,-14.78763 a 274.57262,274.57262 0 0 0 -30.30641,-5.44148 z m -89.7757,11.41585 c -0.75346,0.026 -1.56173,0.43753 -2.26477,1.28464 -1.08998,1.3133 -1.02888,1.89994 0.3505,3.42412 0.91563,1.01179 1.32073,2.20507 0.90083,2.65175 -0.41989,0.44668 0.2811,0.18113 1.55743,-0.58998 1.60277,-0.96829 2.23078,-2.18354 2.03005,-3.93005 -0.21341,-1.85728 -1.31827,-2.88382 -2.57404,-2.84048 z m -35.73202,2.94357 a 274.57262,274.57262 0 0 0 -40.91499,18.74306 c -0.1715,1.52143 -0.81932,3.11286 -1.55743,3.72545 -1.2881,1.06903 -1.40577,0.91602 -0.7914,-1.01978 0.19345,-0.60952 0.26845,-1.11486 0.24266,-1.49875 a 274.57262,274.57262 0 0 0 -4.20918,2.41544 c 0.26755,0.68801 0.43379,1.30705 0.38698,1.58756 -0.44621,2.67373 0.14549,3.55568 1.58438,2.36152 0.81292,-0.67467 1.95486,-0.93109 2.53756,-0.57095 0.58271,0.36014 1.05944,0.0943 1.05944,-0.58998 0,-0.68426 0.24561,-0.99788 0.54557,-0.69784 0.99683,0.9968 -1.86035,5.88238 -3.43997,5.88238 -1.23809,0 -1.17327,0.27724 0.31719,1.36712 1.1365,0.83105 1.45872,1.622 0.82153,2.01577 -0.61429,0.3797 0.3726,2.15605 2.38373,4.28848 2.93163,3.10842 3.43204,4.3598 3.43204,8.58171 0,2.71861 0.50142,5.25202 1.11336,5.63021 0.61193,0.3782 0.91806,2.01261 0.68038,3.63189 -0.24799,1.68953 0.13751,3.4179 0.9056,4.05534 0.73609,0.61092 1.08092,1.52693 0.76602,2.03639 -0.31482,0.50944 0.83112,1.41599 2.54708,2.01418 1.71604,0.59821 2.88773,1.46334 2.60417,1.92221 -0.68778,1.11283 2.31605,4.04264 4.14415,4.04264 1.69874,0 1.69632,0.0211 1.4813,-11.16526 -0.18408,-9.57866 -0.15886,-9.6119 9.52219,-12.28496 3.78556,-1.04524 5.24804,-3.80288 6.16311,-11.61727 0.60187,-5.13986 1.43704,-11.969 2.14107,-17.51868 0.32026,-2.5248 1.19323,-4.6185 2.06493,-4.953 0.83037,-0.31866 1.26909,-1.20603 0.97538,-1.97137 -0.29371,-0.76536 -0.12249,-1.3909 0.38063,-1.3909 1.34146,0 2.43903,-4.05151 2.19023,-8.08213 -0.0214,-0.34587 -0.0505,-0.63858 -0.0777,-0.94048 z m 35.7574,6.32169 c -0.15396,0.0128 -0.23995,0.17007 -0.24741,0.47738 -0.0179,0.73078 -0.4378,1.07818 -0.93256,0.77237 -1.01624,-0.62806 -2.32766,3.37981 -1.52888,4.67229 0.28518,0.46138 1.43214,0.83897 2.54866,0.83897 1.11653,0 1.74862,-0.45676 1.40359,-1.01502 -0.34502,-0.55826 -0.14398,-1.01502 0.44725,-1.01502 1.49087,0 1.34257,-1.28847 -0.41553,-3.61285 -0.57445,-0.7595 -1.01853,-1.13934 -1.27512,-1.11812 z m -1.95868,12.23422 c -0.26265,0.008 -0.51412,0.10336 -0.71687,0.30609 -1.14308,1.14311 -0.69575,2.3409 0.87388,2.3409 0.83736,0 1.52254,-0.42944 1.52254,-0.95476 0,-0.95994 -0.89163,-1.71653 -1.67955,-1.69223 z m 199.15883,3.65884 c 1.48946,3.21569 3.4504,7.08497 4.67228,9.1717 1.38356,2.36284 2.51536,4.56281 2.51536,4.88797 0,0.32517 0.74349,1.36665 1.65258,2.31552 2.02757,2.11633 2.9507,2.16762 4.22029,0.22998 0.67854,-1.03561 0.83903,-2.34011 0.59473,-8.23439 a 274.57262,274.57262 0 0 0 -13.65524,-8.37078 z m -198.93997,4.33764 c -1.33424,0.0196 -2.86177,0.27601 -3.63664,0.75493 -1.63313,1.0093 -0.36053,3.03079 1.90793,3.03079 1.75875,0 4.20442,-1.81523 4.20442,-3.1212 0,-0.46756 -1.14147,-0.68406 -2.47571,-0.66452 z m -1.46386,11.9868 c -0.93236,-0.017 -2.48966,0.8752 -4.16952,2.52805 -1.97759,1.94576 -2.29459,2.8529 -1.4591,4.17746 0.77402,1.22707 0.64648,2.86384 -0.46469,5.95375 -1.38904,3.86284 -1.37846,4.41515 0.11736,5.91093 2.15421,2.15423 3.82016,2.09885 3.83964,-0.12688 0.0114,-1.30644 0.23563,-1.43108 0.84375,-0.47262 1.45571,2.29411 3.95694,0.21797 4.60249,-3.81903 0.34406,-2.1518 1.38939,-5.24447 2.32346,-6.87203 2.25554,-3.93002 1.24045,-6.6106 -2.17913,-5.75233 -1.58319,0.39737 -2.55976,0.21211 -2.55976,-0.48372 0,-0.69646 -0.33508,-1.03333 -0.8945,-1.04358 z m -104.27787,0.19191 a 274.57262,274.57262 0 0 0 -8.95917,6.8974 c 0.0676,0.22047 0.14307,0.42803 0.23314,0.60109 0.5447,1.04671 0.6614,4.2408 0.26327,7.24949 -0.39148,2.95768 -0.38874,5.57644 0.008,5.82053 1.80455,1.11531 1.69148,6.14358 -0.19825,8.7974 -4.25458,5.97499 -6.11664,20.75224 -3.31469,26.30499 1.708,3.38494 0.94406,4.40751 -15.52352,20.80958 -9.35463,9.31743 -12.06359,12.5841 -11.17319,13.47445 0.89028,0.89034 0.8289,1.72268 -0.25376,3.43363 -1.50591,2.37988 -3.19202,9.77441 -3.13389,13.74406 0.0393,2.68025 2.22589,5.26226 4.45659,5.26226 0.83069,0 1.74947,0.57095 2.04115,1.26878 0.63719,1.52461 4.9862,-3.27545 7.23046,-7.98062 0.82875,-1.73744 2.1527,-3.69526 2.94199,-4.35033 0.78928,-0.65505 1.74933,-2.87144 2.13471,-4.92604 0.38547,-2.05459 1.51808,-4.30731 2.51695,-5.00693 0.99878,-0.69959 1.81594,-2.42099 1.81594,-3.82536 0,-2.89734 2.69178,-7.49082 4.88163,-8.33113 0.80479,-0.30887 1.46227,-1.19687 1.46227,-1.97454 0,-0.77766 0.38835,-1.41469 0.86119,-1.41469 1.36167,0 4.501,-3.19945 7.52228,-7.6666 2.13861,-3.1622 2.7818,-5.32293 2.7818,-9.3303 0,-2.86793 0.48438,-5.51239 1.07529,-5.87762 0.60414,-0.37339 0.80076,-1.91219 0.44883,-3.51452 -0.48891,-2.22604 -0.13137,-3.19599 1.63673,-4.43439 2.14681,-1.50369 2.19279,-1.80877 0.89608,-5.93471 -0.75193,-2.39246 -2.2586,-5.35411 -3.348,-6.5818 -2.3914,-2.69498 -1.63309,-5.81121 1.19583,-4.91335 1.81624,0.57646 3.78264,-1.69616 3.31151,-3.82855 -0.10004,-0.45317 -0.36847,-3.06749 -0.59632,-5.80943 -0.28015,-3.37194 -1.28708,-6.13086 -3.11169,-8.52303 -2.46683,-3.2341 -2.56931,-3.7194 -1.19424,-5.68255 0.67122,-0.95831 1.03223,-2.22699 1.09115,-3.75717 z m 330.53627,0.92145 c -0.72709,0.57841 -1.4345,1.13209 -2.0586,1.60183 -2.19905,1.65516 -4.88874,3.8257 -5.97595,4.82454 -1.08722,0.99884 -3.79048,3.22494 -6.00768,4.94666 -2.21718,1.72173 -6.81573,5.29057 -10.22002,7.93146 -3.4043,2.64087 -7.06549,5.82529 -8.13447,7.07503 -1.06898,1.24977 -4.44836,4.90145 -7.50959,8.11544 -3.06123,3.21401 -7.9542,8.61157 -10.87345,11.99473 -2.91925,3.38316 -7.70402,8.64221 -10.63396,11.68705 -2.92994,3.04485 -5.9822,6.81201 -6.78322,8.37078 -0.80102,1.55878 -2.11717,3.635 -2.92454,4.6136 -1.36429,1.65363 -3.27515,5.15502 -6.50884,11.92812 -1.96653,4.11897 -1.88266,13.08967 0.17129,18.3307 0.81913,2.09017 1.79543,5.78081 2.1712,8.20267 0.37576,2.42184 0.85921,4.6884 1.07371,5.03547 1.24088,2.00779 3.14837,17.41867 3.87611,31.31032 0.52515,10.02459 0.71827,11.24425 2.39483,15.18412 1.73464,4.07637 3.97937,7.82188 7.96001,13.28254 5.56663,7.63623 9.36921,13.24709 9.87111,14.56719 0.95641,2.51556 7.80895,11.11759 10.95115,13.74723 1.62987,1.36403 5.31589,4.3439 8.19156,6.62145 2.87536,2.27736 6.8894,6.07411 8.91953,8.43739 2.89095,3.36544 4.05368,4.2964 5.36853,4.2964 1.49295,5.7e-4 1.61833,-0.15178 1.1308,-1.38296 -0.55091,-1.39116 -1.9736,-7.09004 -3.34007,-13.3793 -0.43114,-1.98441 -1.61841,-4.60221 -2.87061,-6.33279 -5.66896,-7.83452 -12.95954,-16.67269 -18.11818,-21.96259 l -5.69841,-5.84432 -0.34098,-15.37762 c -0.18739,-8.45789 -0.62289,-16.48577 -0.96745,-17.83904 -0.34457,-1.35328 -1.06052,-5.36563 -1.59073,-8.91794 -0.53021,-3.5523 -1.39011,-7.9818 -1.9111,-9.84256 -0.64953,-2.31982 -1.1134,-8.26479 -1.47813,-18.91592 -0.49497,-14.45448 -0.6483,-15.87985 -2.19182,-20.51459 -1.28182,-3.84897 -1.5154,-5.29322 -1.03088,-6.3566 1.0715,-2.3517 8.73807,-10.7038 11.17478,-12.17394 5.05295,-3.0486 11.57162,-7.57305 14.67344,-10.18514 3.41271,-2.87386 9.32627,-9.75931 11.58237,-13.48554 0.72399,-1.19573 2.38467,-3.44716 3.69057,-5.00375 1.30593,-1.55659 3.09399,-3.94574 3.97446,-5.30826 0.88045,-1.36252 2.86242,-3.81776 4.40266,-5.45576 3.48254,-3.7032 4.98517,-3.70116 5.25593,0.008 0.17253,2.36336 -0.10433,2.88988 -3.69057,7.00208 -3.85035,4.41505 -7.54202,10.34885 -8.53889,13.72345 -0.28605,0.96836 -0.81104,3.84635 -1.1657,6.39623 -0.35465,2.54989 -1.15805,5.49471 -1.7858,6.54373 -0.62775,1.04903 -1.89375,4.67518 -2.81194,8.05835 -2.57956,9.50472 -3.42895,11.98602 -5.59373,16.31968 -2.31556,4.63554 -3.33262,8.01324 -3.97604,13.20642 -0.2515,2.0299 -0.88198,5.48974 -1.40041,7.6888 -0.51844,2.19906 -1.40419,6.51583 -1.9682,9.59357 -0.99204,5.4133 -0.9854,5.71835 0.19825,9.32394 0.67297,2.04995 1.69265,6.03648 2.26636,8.85926 0.57371,2.82274 1.42875,5.88144 1.89999,6.7975 0.47125,0.91604 1.11311,4.13829 1.4258,7.16067 0.40189,3.88449 1.0483,6.44119 2.2045,8.72286 0.89959,1.77525 2.5693,6.02677 3.71119,9.44766 5.82148,17.43994 7.89662,22.79541 10.35958,26.74589 2.49825,4.00699 5.17517,11.32506 7.17496,19.61375 1.22162,5.06334 2.56561,9.06233 3.5621,10.59907 l 1.60025,2.46936 7.24314,0 c 3.98421,0 7.24474,-0.0993 7.24474,-0.22044 0,-0.121 -0.96965,-2.07863 -2.15376,-4.35033 -2.75455,-5.28462 -2.95754,-9.22174 -0.59156,-11.4444 1.43303,-1.34625 1.68102,-1.39198 3.0308,-0.56778 2.61154,1.59456 11.29025,10.27848 13.00023,13.00817 0.91347,1.4583 1.96541,2.8552 2.33773,3.10375 0.37232,0.24856 6.35182,0.45835 13.2873,0.45835 l 12.61009,0.008 -2.15376,-1.28623 c -3.63778,-2.17345 -7.97456,-6.81654 -10.28504,-11.01143 -1.2112,-2.19903 -3.33603,-5.1945 -4.72304,-6.65792 -3.73319,-3.93885 -13.32162,-10.41003 -17.73121,-11.96618 -4.66025,-1.64458 -9.35646,-6.04554 -11.81551,-11.0717 -0.89366,-1.82655 -2.32302,-6.6976 -3.17512,-10.82428 -1.59502,-7.72479 -5.29645,-17.94693 -8.15826,-22.52878 -3.20696,-5.13449 -5.23261,-8.03718 -7.29865,-10.45791 -1.15499,-1.35326 -3.25778,-4.7918 -4.67229,-7.64123 -2.28798,-4.60894 -2.59547,-5.74904 -2.78973,-10.33739 -0.35603,-8.41014 0.0939,-9.99581 4.24725,-14.96685 2.00719,-2.40237 4.08694,-5.2887 4.62152,-6.41527 0.53461,-1.12658 2.77974,-3.78427 4.98948,-5.90617 7.11526,-6.83243 9.21692,-10.36183 13.52361,-22.70323 1.1357,-3.2545 3.44929,-7.42728 5.81578,-10.49123 0.92918,-1.20304 2.30247,-3.69483 3.053,-5.53664 1.23799,-3.038 1.40298,-4.80482 1.77629,-19.03487 l 0.32037,-12.16126 a 274.57262,274.57262 0 0 0 -24.69046,-21.10298 z m -227.12593,8.9449 c 0.92393,0.002 1.76203,0.5781 1.76203,1.53363 0,0.8374 -0.65939,1.52254 -1.46386,1.52254 -1.69574,0 -2.83937,-1.44915 -1.89207,-2.39641 0.45491,-0.45491 1.03956,-0.66071 1.5939,-0.65976 z m -78.16478,11.27787 c -0.24551,0.0246 -0.54386,0.5621 -1.11812,1.63514 l -0.002,0 c -0.84279,1.57479 -0.86207,2.39381 -0.0697,2.88331 1.65611,1.02353 2.83079,-0.79245 1.98881,-3.07521 -0.36118,-0.9793 -0.55381,-1.46785 -0.79933,-1.44324 z m 73.81129,6.02829 c -1.06085,0.0347 -2.00111,0.45402 -2.2505,1.20217 -0.22778,0.68319 0.19545,2.39604 0.94048,3.80634 1.25424,2.37408 1.16618,2.6362 -1.19266,3.52245 -2.22551,0.83619 -2.54707,1.56235 -2.54707,5.75075 0,2.63702 -0.39825,4.9477 -0.88497,5.1338 -0.95145,0.36376 -6.22019,11.42246 -6.22019,13.05574 0,0.54173 -0.42466,0.98489 -0.94208,0.98489 -1.40528,0 -4.11404,5.97416 -3.47011,7.65234 0.30767,0.80178 0.0823,2.82365 -0.49958,4.49306 -0.65262,1.87192 -0.69165,3.26178 -0.10309,3.62555 0.52497,0.32441 0.95476,1.46527 0.95476,2.53597 0,1.07072 1.10677,2.67233 2.45984,3.55893 3.74089,2.45112 7.66946,-0.009 10.0646,-6.30267 1.02672,-2.69799 2.30084,-5.82488 2.83255,-6.94815 0.53171,-1.12329 0.93566,-3.86386 0.89766,-6.09015 -0.0976,-5.72347 1.05131,-12.67512 2.09508,-12.67512 1.55639,0 3.89086,-5.6054 2.96102,-7.10992 -0.49282,-0.79744 -0.46002,-2.17262 0.0745,-3.17195 1.89875,-3.54781 0.5331,-9.97812 -2.60893,-12.28655 -0.5972,-0.43874 -1.35823,-0.67571 -2.10141,-0.72796 -0.15483,-0.0109 -0.30839,-0.0145 -0.45993,-0.01 z m -74.53608,0.85009 c -0.41692,-0.0121 -0.94851,0.30972 -1.54474,0.95158 -1.64978,1.77611 -1.87589,6.83962 -0.68831,15.41409 0.42525,3.07045 0.94558,8.63805 1.15776,12.37219 0.21218,3.73414 0.87401,7.70089 1.4702,8.81485 0.59618,1.11396 1.08481,3.33413 1.08481,4.93397 0,1.59984 0.53466,3.44498 1.18948,4.09975 0.88071,0.88074 0.90163,1.82473 0.0793,3.63029 -1.36119,2.98734 -0.0241,4.69093 3.75559,4.78489 2.58831,0.0644 2.58733,0.063 0.0745,1.06578 -1.88388,0.75173 -2.17184,1.21319 -1.153,1.8429 0.81681,0.50477 0.93605,0.99171 0.29975,1.21803 -0.65855,0.23423 -0.48726,1.14336 0.452,2.40592 1.5102,2.03005 1.50953,2.03005 2.6803,0 2.11758,-3.67158 1.1338,-9.61648 -1.33856,-8.08847 -1.43256,0.88537 -1.10909,-0.77019 0.58998,-3.01653 0.81966,-1.08366 1.49807,-2.9107 1.50668,-4.06009 0.0106,-1.37503 0.28321,-1.66869 0.79933,-0.85643 0.60909,0.9585 1.38391,0.92447 3.46536,-0.15542 1.47446,-0.76496 2.96657,-1.10618 3.31468,-0.7581 0.34812,0.34809 0.3429,-0.1196 -0.01,-1.03881 -0.50426,-1.3141 -0.17975,-1.55092 1.51778,-1.10701 1.42785,0.3734 3.00942,-0.23298 4.66911,-1.79215 2.50947,-2.35753 2.50897,-2.358 4.1283,-0.046 2.15453,3.07596 3.11252,1.83417 4.22027,-5.47162 1.45303,-9.58263 0.40133,-18.0901 -2.67395,-21.63588 -2.1007,-2.42217 -4.37143,-2.96492 -3.9681,-0.94841 0.15712,0.78553 -0.66718,1.16847 -2.16486,1.00392 -1.3305,-0.14616 -2.98409,0.20238 -3.67471,0.77555 -0.69062,0.57318 -2.97805,1.15024 -5.08305,1.28146 -3.4363,0.21427 -3.93205,-0.0732 -4.8515,-2.80717 -0.56322,-1.67479 -1.50411,-3.35706 -2.09031,-3.73814 -0.5862,-0.38109 -1.06577,-2.29177 -1.06577,-4.24724 0,-1.95549 -0.36541,-3.33062 -0.81202,-3.05459 -0.44661,0.27601 -0.81202,0.0329 -0.81202,-0.54082 0,-0.5737 -0.73025,-0.76324 -1.62404,-0.42028 -0.89371,0.34295 -1.9214,0.1512 -2.28381,-0.42663 -0.15691,-0.25025 -0.36678,-0.37811 -0.61694,-0.38539 z m 128.37359,1.31635 c -2.83597,0.005 -5.52982,1.03641 -7.37478,3.16719 -3.31515,3.82872 -3.74512,7.82203 -0.84215,7.82203 1.33228,0 2.15735,0.94497 2.60575,2.9864 0.51717,2.35463 1.55368,3.31053 4.90067,4.51051 4.01794,1.44056 8.71504,1.73807 9.82986,0.62329 0.27909,-0.27914 1.42104,-1.01176 2.53756,-1.62721 2.86814,-1.58099 3.49815,-10.26038 0.81678,-11.25091 -1.0078,-0.37228 -2.06022,-0.9601 -2.33931,-1.30685 -2.60751,-3.23916 -6.48813,-4.93083 -10.13438,-4.92445 z m 218.87409,10.18038 c -0.0855,1.10634 -0.17585,2.2366 -0.2379,3.23697 -0.67261,10.84357 -2.41145,21.88011 -4.07437,25.85774 -0.49926,1.19419 -1.59849,4.6264 -2.4424,7.62696 -1.4533,5.16728 -3.90377,10.49911 -8.41201,18.30215 -2.36688,4.09668 -10.02994,12.84164 -11.2525,12.84164 -0.96824,0 -1.258,1.08201 -1.81277,6.76736 -0.21458,2.19906 -0.81207,6.04679 -1.32905,8.54999 -1.25628,6.08309 -0.82076,8.23171 3.44474,16.97787 1.97997,4.05979 4.42893,9.21114 5.44307,11.44915 1.54005,3.39854 2.56236,4.64241 6.19958,7.54448 2.39518,1.91107 5.23409,4.56858 6.30901,5.90618 1.07491,1.33759 3.82638,3.82452 6.11393,5.52554 2.28757,1.7011 5.50022,4.63459 7.14006,6.51993 1.63984,1.88535 4.6778,5.29908 6.74991,7.58573 5.61745,6.19887 9.34004,11.52148 10.30408,14.73212 1.15941,3.86132 7.00637,14.03874 11.24615,19.57411 l 3.45584,4.51051 5.74916,0 5.75075,0 -1.30684,-3.53672 c -1.54494,-4.18474 -8.22642,-14.15846 -11.91702,-17.78989 -1.89229,-1.86188 -2.80604,-3.39445 -3.33213,-5.58739 -1.08449,-4.52068 -2.744,-6.91307 -4.79441,-6.92119 -3.26651,-0.008 -7.36569,-3.97517 -8.83863,-8.55317 -0.39063,-1.21413 -0.91336,-2.48475 -1.16094,-2.82304 -0.24757,-0.33836 -0.6391,-1.4449 -0.8707,-2.45985 -0.46265,-2.02745 -2.18555,-6.70165 -4.45976,-12.10416 -0.80877,-1.92122 -2.40052,-5.93513 -3.53832,-8.91952 -3.09827,-8.12659 -7.89933,-19.52127 -10.74339,-25.49772 -1.38935,-2.91951 -3.25281,-8.03918 -4.14098,-11.3762 -2.0793,-7.81223 -1.86315,-12.4379 0.83264,-17.76769 2.43797,-4.82005 3.57465,-9.5829 5.06084,-21.21558 0.66996,-5.2439 2.06926,-13.54882 3.1101,-18.45441 1.04084,-4.90559 2.15183,-10.44167 2.46778,-12.30241 0.0731,-0.43062 0.2494,-1.26639 0.47579,-2.29174 a 274.57262,274.57262 0 0 0 -5.18931,-5.90775 z m -204.9413,4.89273 c -0.62729,-0.074 -0.74224,2.4523 -0.74224,13.92169 l 0,14.36735 1.56853,0.58046 c 2.69274,0.99622 15.06707,11.30999 21.49948,17.91994 3.38312,3.47656 6.42749,6.23495 6.76577,6.12979 1.13813,-0.35377 1.01491,-5.29002 -0.22204,-8.87194 -0.66959,-1.93893 -1.41169,-4.77073 -1.64783,-6.29315 -0.29719,-1.91618 -1.39025,-4.09433 -3.55258,-7.07504 -1.71799,-2.36821 -4.35192,-6.6576 -5.85383,-9.53329 -1.50191,-2.87569 -3.5826,-6.47407 -4.62312,-7.99649 -1.7918,-2.62183 -11.18799,-12.04757 -13.06051,-13.10174 -0.0465,-0.0261 -0.0898,-0.0426 -0.13163,-0.0476 z m 226.2568,22.82536 c -0.11192,0.39333 -0.22101,0.7411 -0.32354,0.98647 -0.50892,1.21803 -0.9262,2.38044 -0.9262,2.58356 0,0.20311 2.85961,3.18789 6.35342,6.63255 1.05571,1.04086 2.13579,2.1887 3.21635,3.37495 a 274.57262,274.57262 0 0 0 -8.32003,-13.57753 z m -253.15176,4.86418 c -1.41335,0.0416 -3.05574,0.45568 -4.81661,1.27512 -1.67479,0.77939 -4.02631,1.2014 -5.22421,0.9389 -2.19302,-0.48054 -3.94705,1.6692 -3.52245,4.31545 0.11068,0.68981 -0.78291,2.5829 -1.98405,4.20759 -3.91751,5.29867 -0.76714,24.4811 4.02044,24.4811 1.11206,0 2.30515,0.45676 2.65018,1.01503 1.02501,1.65849 4.37399,1.16228 7.8807,-1.16728 6.63899,-4.41046 10.81651,-18.5657 7.4636,-25.28678 -0.90353,-1.81121 -1.64148,-4.3495 -1.64148,-5.63973 0,-2.55756 -1.67157,-4.01241 -4.23456,-4.13464 -0.19222,-0.009 -0.38966,-0.0107 -0.59156,-0.005 z m -214.83303,13.41735 a 274.57262,274.57262 0 0 0 -5.8808,11.58555 c 0.95676,-0.71612 1.89923,-1.40096 2.74215,-1.96819 7.69888,-5.18087 8.58187,-7.5447 3.53197,-9.45083 -0.13679,-0.0516 -0.26379,-0.10972 -0.39332,-0.16653 z m 461.21109,6.0838 c -1.22131,0.0277 -3.15249,1.22767 -5.15125,3.26077 -6.40421,6.51424 -6.11073,13.17677 1.07847,24.51759 1.9302,3.04485 3.95246,7.11646 4.49466,9.04957 0.89237,3.18171 2.02687,4.27484 2.02687,1.95234 0,-0.50607 0.58829,-2.21159 1.30684,-3.7889 1.26583,-2.77865 1.28784,-3.27037 0.71687,-15.80582 -0.49507,-10.86913 -0.79173,-13.39091 -1.85242,-15.77887 -0.69442,-1.56334 -1.54699,-3.01857 -1.89525,-3.2338 -0.19829,-0.12256 -0.44294,-0.17926 -0.72479,-0.17288 z m -365.25484,1.697 c -1.91577,-0.0469 -2.90266,0.58394 -4.89749,2.49473 -1.66407,1.5939 -4.35545,4.1715 -5.98071,5.72855 -9.09916,8.7172 -11.02627,12.63722 -7.90609,16.08496 1.03297,1.14138 1.9042,2.60532 1.93489,3.25284 0.14276,3.01749 2.96114,6.75942 5.09098,6.75942 1.37443,0 2.45588,0.76516 2.76753,1.95709 0.80942,3.09515 8.27063,0.41388 13.50458,-4.85308 2.30013,-2.3146 4.67529,-4.20918 5.27813,-4.20918 1.52424,0 2.80698,-11.02108 1.44165,-12.38646 -0.74844,-0.74838 -0.72436,-1.62071 0.0793,-2.9071 2.27025,-3.63535 -3.23643,-10.76478 -9.01468,-11.67119 -0.91644,-0.14375 -1.65949,-0.23495 -2.29808,-0.25058 z m 394.76826,15.80106 c -0.17714,1.68893 -0.36238,3.57775 -0.51227,5.35902 -0.78123,9.2834 -3.14105,14.86221 -10.0646,23.79597 l -3.50501,4.52162 -0.42187,5.60324 c -0.56099,7.43148 -0.11732,9.34134 3.08314,13.24131 1.47907,1.80241 4.91336,6.87656 7.63013,11.2747 2.71676,4.39806 5.67682,8.89526 6.57862,9.99482 0.9018,1.09955 1.85529,1.99991 2.11887,1.99991 1.5488,0 2.18763,-2.46823 2.53438,-9.78071 0.28981,-6.1115 0.89639,-9.89811 2.86586,-17.9009 1.36679,-5.55385 2.66197,-10.96089 2.89758,-12.09306 a 274.57262,274.57262 0 0 0 -13.20483,-36.01592 z m -339.83324,8.40885 c -0.41876,0.0218 -2.24581,0.68477 -4.0601,1.47337 -1.81438,0.78858 -3.29883,1.84269 -3.29883,2.34248 0,0.49979 -0.85078,1.89064 -1.89048,3.08949 -1.77329,2.0446 -2.27272,9.13264 -1.01027,14.34673 0.5607,2.3161 4.48172,5.10295 7.12103,5.06243 5.61584,-0.0862 11.58353,-8.66026 9.84573,-14.14531 -0.44718,-1.41164 -1.06582,-3.83339 -1.37504,-5.38281 -0.54584,-2.73506 -3.79205,-6.86676 -5.33204,-6.78638 z m 162.34675,1.27195 c -1.2708,0.0354 -3.86363,2.90515 -4.89273,5.65083 -0.60706,1.61967 -1.77556,4.11214 -2.59783,5.53822 -0.82226,1.42609 -2.44052,5.27139 -3.59541,8.54524 -1.15487,3.27382 -2.80167,7.14925 -3.65884,8.61184 -0.91516,1.5616 -5.12812,5.77794 -10.20734,10.21527 -4.75728,4.15609 -10.63279,9.30863 -13.05733,11.45074 -4.34095,3.83509 -17.51898,14.66547 -20.64623,16.96835 -2.95583,2.17662 -6.30896,5.5734 -7.22411,7.31769 -1.26691,2.41478 -1.16703,6.88465 0.25693,11.53955 0.66501,2.1741 1.39977,5.61449 1.63355,7.64441 0.2337,2.02989 0.85984,5.28193 1.3909,7.22729 l 0.96586,3.53672 10.42144,0 10.41986,0 -4.35985,-5.07353 c -3.52911,-4.10801 -4.59257,-5.84976 -5.58104,-9.13998 -1.56906,-5.22201 -1.55404,-7.95551 0.0539,-9.99957 2.28259,-2.90186 4.22841,-1.73176 4.25358,2.55976 0.013,2.18238 2.65126,4.13287 7.22413,5.34156 2.29039,0.60536 4.99431,1.71585 6.00926,2.46778 3.03154,2.24597 7.92565,4.50872 12.48796,5.77295 5.67034,1.57134 6.49131,2.06497 8.56269,5.14966 l 1.75567,2.61369 20.1054,0.16336 c 18.98114,0.15306 20.08424,0.10108 19.72319,-0.92304 -0.89506,-2.53903 -3.70821,-5.35681 -8.40725,-8.42153 -6.86181,-4.47528 -9.84174,-7.72573 -11.75684,-12.82261 -1.43226,-3.81178 -1.56598,-4.98939 -1.57329,-13.84081 -0.005,-5.32083 -0.17663,-10.29623 -0.38063,-11.05742 -0.50873,-1.89834 -1.95513,-1.73844 -2.78497,0.30769 -2.59906,6.40845 -6.77036,14.73577 -9.47461,18.91434 -1.75158,2.70654 -3.67498,5.88935 -4.27421,7.07345 -3.05456,6.03597 -6.54078,9.62687 -8.58646,8.84181 -0.89822,-0.34462 -1.02225,-0.93671 -0.74225,-3.551 1.87776,-17.53264 2.34815,-21.43053 2.94357,-24.359 0.85774,-4.21868 1.49297,-5.45297 7.11628,-13.8408 5.45835,-8.14188 6.53581,-9.85428 7.8363,-12.44991 2.68719,-5.36329 4.31668,-26.20547 2.60417,-33.31182 -0.52139,-2.16361 -1.20001,-4.1864 -1.50826,-4.49465 -0.11922,-0.11922 -0.27363,-0.17159 -0.45518,-0.16653 z m -329.04861,0.57571 a 274.57262,274.57262 0 0 0 -9.5777,29.41508 c 1.99358,0.53726 3.53962,0.15007 4.11878,-1.35918 0.32135,-0.8374 1.57778,-1.52254 2.79131,-1.52254 1.51949,0 2.56438,-0.94804 3.35592,-3.04507 0.63215,-1.67479 1.87371,-3.04507 2.7596,-3.04507 1.73919,0 2.03982,-2.24037 1.63514,-12.18029 -0.24718,-6.07159 -1.29377,-8.1202 -4.14891,-8.1202 -0.32595,0 -0.63927,-0.0552 -0.93414,-0.14273 z m 256.82331,1.86827 0.14114,19.37587 c 0.0431,5.92908 0.0816,9.92679 0.15226,12.8797 -0.0402,-0.59569 -0.0767,-0.86796 -0.10627,-0.69624 -0.1244,0.72139 -0.67613,1.86329 -1.22595,2.53756 -5.13789,6.30051 -5.84982,7.7445 -6.46444,13.10967 -0.58814,5.13388 -0.4098,6.02928 1.56219,7.86644 1.22388,1.14022 2.64912,2.07286 3.16719,2.07286 0.51807,0 0.72775,1.11912 0.46628,2.48681 -0.42014,2.19802 1.68426,4.52646 2.94833,3.26235 0.2138,-0.21379 0.24987,-7.64681 0.0809,-16.51792 -0.0736,-3.85791 -0.16072,-7.14623 -0.24583,-9.74423 0.19423,2.59258 0.52064,3.45188 1.12604,4.58029 0.72602,1.35327 2.33357,4.39751 3.5732,6.76577 1.23963,2.36817 2.98111,5.06783 3.86978,5.99816 1.90013,1.98912 1.88638,1.98667 3.33689,0.67404 1.33723,-1.21015 1.48043,-7.34246 0.50593,-21.61526 -0.72976,-10.68703 -1.79114,-14.21167 -6.68648,-22.19413 -1.99716,-3.25662 -4.20973,-7.02704 -4.91651,-8.3803 l -1.28464,-2.46144 z m 36.52024,4.56603 c -1.33362,-0.025 -2.9259,0.86056 -4.80233,2.66126 -3.31881,3.18486 -4.07056,6.00429 -2.63271,9.86953 0.56914,1.52995 1.13347,5.85539 1.38138,10.58321 0.23061,4.39808 0.67136,8.48131 0.97854,9.07336 0.94545,1.82245 4.42501,1.38704 7.00367,-0.87704 l 2.22512,-1.95551 -0.20458,-12.99072 c -0.17656,-11.17629 -0.35747,-13.22221 -1.29575,-14.65282 -0.73492,-1.12057 -1.61605,-1.69183 -2.65334,-1.71127 z m -80.01403,12.99865 c -0.12636,-8.1e-4 -0.16971,0.26631 -0.17604,0.80092 -0.0162,1.35765 -3.12458,1.31232 -4.14415,-0.0602 -0.31726,-0.42709 -0.88819,-0.46462 -1.26878,-0.084 -1.25295,1.2529 -0.72436,2.23828 1.37821,2.56769 1.13861,0.17839 2.02483,0.78029 1.96978,1.33856 -0.14389,1.45884 4.26878,2.37914 6.36452,1.32746 2.47155,-1.24028 2.22097,-3.39986 -0.41712,-3.59858 -1.20584,-0.0908 -2.56888,-0.75868 -3.02921,-1.48447 -0.3408,-0.53728 -0.55083,-0.80631 -0.67721,-0.80726 z m -171.09025,1.16252 c -1.98656,0.042 -4.12302,0.74451 -5.3146,2.08397 -3.24889,3.65212 -5.09661,10.49255 -3.38923,12.54983 0.75606,0.91098 1.45041,2.86741 1.54316,4.34715 0.0928,1.47974 0.22776,3.21715 0.29974,3.86185 0.22261,1.99364 8.54432,0.42012 10.28188,-1.9444 3.29411,-4.48272 4.74185,-11.13069 3.14816,-14.453 -0.80339,-1.67479 -1.7726,-3.73021 -2.15375,-4.56761 -0.59249,-1.30174 -2.42879,-1.91979 -4.41536,-1.87779 z m 43.79513,17.10316 c -1.02729,0 -2.12453,0.66833 -2.43765,1.48447 -0.3132,0.81615 -1.44088,1.76024 -2.50584,2.09824 -2.8657,0.90954 -2.34683,2.11013 0.85642,1.98406 1.53521,-0.0604 3.62388,0.29488 4.64216,0.78982 1.44003,0.69989 1.97441,0.43259 2.40275,-1.20535 0.30289,-1.15829 1.06744,-2.12014 1.70017,-2.13789 1.92221,-0.0539 -2.65232,-3.01335 -4.65801,-3.01335 z m 100.65232,3.49707 c -0.70068,-0.0105 -1.74481,0.0872 -2.6565,0.26169 -3.1767,0.60783 -4.60869,2.77881 -5.01803,7.60634 -0.19732,2.32762 -0.84065,4.52914 -1.42896,4.89273 -0.58831,0.36359 0.80056,0.73515 3.08631,0.82471 3.79059,0.14853 4.27664,-0.12653 5.5287,-3.13072 1.76582,-4.23682 2.36594,-10.13809 1.05785,-10.40716 -0.13956,-0.0288 -0.33581,-0.0441 -0.56937,-0.0476 z m -61.1774,4.26628 c -0.23827,0.003 -0.46787,0.0306 -0.67721,0.0825 -0.83743,0.20757 -2.33778,1.48876 -3.33372,2.84682 -1.6752,2.28422 -1.68889,2.65457 -0.18398,4.95142 2.92579,4.4653 8.59282,1.6528 8.59282,-4.26469 0,-1.9786 -0.302,-3.29663 -0.66928,-2.9293 -0.36736,0.36734 -1.16671,0.29662 -1.77629,-0.15701 -0.45725,-0.34022 -1.23753,-0.53939 -1.95234,-0.52971 z m 87.3682,1.05626 c -1.78827,-0.006 -3.26024,0.77793 -6.36769,2.71519 -6.00838,3.74582 -13.22465,11.33964 -11.6823,12.29289 0.58084,0.35897 1.05627,2.12219 1.05627,3.91895 0,5.3361 5.69997,10.82427 11.24298,10.82427 4.85116,0 14.13262,-12.03012 14.13262,-18.31801 0,-5.41114 -1.86477,-9.92416 -4.39949,-10.64982 -1.72248,-0.49311 -2.90943,-0.78005 -3.98239,-0.78347 z m -224.09036,8.43421 c -1.631304,0.0627 -3.013364,0.60558 -3.013364,1.52412 0,0.8374 -0.4893,1.52254 -1.08639,1.52254 -0.0976,0 -0.18523,0.0359 -0.26803,0.0872 a 274.57262,274.57262 0 0 0 -0.39649,2.62162 c 0.69529,2.31063 4.103984,2.04251 7.607924,-0.7137 2.74418,-2.15856 2.95312,-2.96318 1.08005,-4.15049 -0.86877,-0.55069 -2.06148,-0.83563 -3.21319,-0.88814 -0.23994,-0.011 -0.47747,-0.0121 -0.71051,-0.003 z m 52.20395,1.05944 c -1.8611,0.0153 -4.00248,0.7048 -5.48113,1.98722 -1.28737,1.11653 -2.66559,2.03005 -3.06251,2.03005 -0.39692,0 -2.03977,1.94123 -3.65092,4.31385 -1.61115,2.37262 -3.48447,4.90052 -4.1616,5.61752 -1.5331,1.62338 0.42093,6.64322 2.30442,5.92045 0.66994,-0.25707 1.64746,-0.0384 2.17279,0.4869 1.26608,1.26607 10.51541,-2.13956 11.29373,-4.15843 0.32283,-0.8374 1.45998,-2.2307 2.52646,-3.09583 2.16448,-1.75582 3.13546,-9.72696 1.44641,-11.87578 -0.6618,-0.84192 -1.94013,-1.23787 -3.38765,-1.22595 z m 114.94197,4.32495 c -0.92437,0.0302 -2.22154,0.67529 -4.73731,1.78581 -4.45352,1.96591 -5.15039,2.768 -8.57061,9.86159 -1.53918,3.19223 -1.49668,3.51375 1.05785,7.87278 4.10971,7.01266 9.21191,7.3469 14.11042,0.92462 1.55583,-2.03984 3.03077,-5.67367 3.49549,-8.61343 0.72318,-4.57475 0.53867,-5.43586 -1.83974,-8.57536 -1.75478,-2.31629 -2.32762,-3.29485 -3.5161,-3.25601 z m 371.47503,4.49782 c -2.27165,3.24424 -6.72454,12.65283 -6.72452,14.453 0,2.32575 5.5118,14.04738 9.28905,19.78187 a 274.57262,274.57262 0 0 0 -2.56453,-34.23487 z m -437.63081,0.36636 c -1.62357,0.0365 -3.75764,0.51457 -6.84508,1.34491 -6.3983,1.7208 -11.16467,5.85234 -14.95574,12.96376 -2.18344,4.09577 -1.89592,5.91171 1.61135,10.17086 1.24726,1.5146 2.4381,3.26379 2.64541,3.88565 0.76427,2.29293 11.19827,1.87802 15.12545,-0.60109 6.77338,-4.27586 11.82561,-18.74633 8.32954,-23.85625 -1.91759,-2.80286 -3.20499,-3.96864 -5.91093,-3.90784 z m 167.2617,12.08514 c -0.41876,8.1e-4 -0.88192,1.6858 -1.0293,3.7429 -0.14747,2.0571 -0.85966,4.45463 -1.58122,5.32729 -0.72164,0.87266 -1.85792,2.86768 -2.52646,4.43439 -0.66861,1.5667 -1.67088,2.5671 -2.22671,2.22353 -0.55591,-0.34355 -1.01026,0.10752 -1.01026,1.00234 0,0.89482 -0.5836,1.49415 -1.29574,1.33063 -1.3033,-0.29929 -3.13979,0.94853 -7.17496,4.87529 -1.20349,1.17118 -2.87223,2.39045 -3.70959,2.71043 -0.83743,0.31997 3.61601,0.61886 9.89648,0.66294 l 11.41902,0.0793 0,-13.19531 c 0,-7.25742 -0.34259,-13.19484 -0.76126,-13.19372 z m -270.377054,2.8151 c -1.44216,-0.0109 -3.08525,0.35721 -4.8626,1.07688 a 274.57262,274.57262 0 0 0 -0.94048,18.80332 274.57262,274.57262 0 0 0 0.13004,3.68739 c 8.610314,-0.0639 9.479564,-1.1976 11.858344,-12.56885 0.5743,-2.74526 0.39045,-4.98584 -0.60109,-7.35892 -1.00539,-2.40625 -2.97543,-3.62015 -5.584214,-3.63982 z m 130.622504,7.52704 c -1.35077,-0.10563 -2.07255,1.28917 -2.01577,4.07754 0.0633,3.12374 -0.23776,3.81117 -1.46545,3.34007 -1.11604,-0.42827 -1.00382,0.005 0.40285,1.55901 1.94835,2.1529 1.94876,2.15363 2.97052,-0.20935 0.562,-1.29964 1.59984,-2.96713 2.3076,-3.70484 1.62104,-1.68961 1.62524,-2.70936 0.0175,-3.97762 -0.85944,-0.67803 -1.6032,-1.03681 -2.21719,-1.08481 z m -89.89466,5.0212 c -0.27913,0.0408 -2.10617,0.59618 -4.0601,1.23547 -5.21828,1.70734 -5.82439,2.30798 -6.28205,6.22813 -0.41584,3.56198 -0.41629,3.56209 8.51511,3.56209 7.35331,0 8.93221,-0.27449 8.93221,-1.55742 0,-2.68696 -5.28804,-9.73375 -7.10517,-9.46827 z m 197.61569,6.03305 c -0.10662,0.0456 -1.64303,0.71796 -3.41461,1.49399 -3.95112,1.73067 -5.21807,3.49865 -2.50584,3.49865 3.11758,0 5.21945,-1.08887 5.21945,-2.70567 0,-0.85558 0.49013,-1.1706 1.17044,-0.75017 0.72603,0.44873 0.89756,0.2788 0.44884,-0.44724 -0.3983,-0.64452 -0.81167,-1.1351 -0.91828,-1.08956 z m -24.55407,3.04666 c -0.78843,0 -1.57686,0.31011 -2.53756,0.93096 -1.12189,0.725 -0.45408,0.98331 2.53756,0.98331 2.99156,0 3.65936,-0.25831 2.53756,-0.98331 -0.9607,-0.62085 -1.74913,-0.93096 -2.53756,-0.93096 z m -121.63955,2.00149 c -1.13483,-0.004 -2.44504,0.002 -3.95066,0.002 l -10.57687,0 -0.49007,2.4535 c -0.26982,1.34912 -0.80849,2.64927 -1.19741,2.88964 -0.38893,0.24037 -0.70734,1.48789 -0.70734,2.77229 0,1.2844 -0.39966,3.36428 -0.88815,4.62153 -0.48849,1.25725 -1.05483,3.66457 -1.25768,5.34949 -0.20285,1.68492 -1.7809,7.53146 -3.50659,12.99231 -3.97562,12.58058 -6.52787,22.6113 -6.52787,25.65157 0,1.30249 -0.76547,5.97183 -1.70017,10.37545 -3.36682,15.86204 -4.80634,31.68265 -3.28138,36.05714 0.4729,1.35658 1.27745,6.37929 1.7874,11.16209 0.50994,4.78281 1.44437,9.94824 2.07762,11.47771 0.63325,1.52947 1.19274,4.61928 1.24341,6.86727 0.0507,2.24799 1.13521,7.30637 2.41068,11.24139 1.27546,3.93504 2.56373,8.70151 2.8611,10.59115 0.29737,1.88963 1.93612,5.65465 3.64298,8.3676 1.70685,2.71296 4.22685,7.8287 5.5985,11.36827 1.37164,3.53958 2.99449,7.53212 3.60808,8.87195 1.15897,2.5306 3.95811,11.32001 6.18531,19.04121 a 274.57262,274.57262 0 0 0 39.50506,28.8362 c -0.18718,-0.4708 -0.3892,-0.93964 -0.60109,-1.37821 -0.89322,-1.84874 -1.62404,-3.83 -1.62404,-4.40267 0,-0.57267 -1.09622,-3.19818 -2.43605,-5.83479 -1.33984,-2.63661 -2.43606,-5.76565 -2.43606,-6.95292 0,-1.18728 -0.60208,-3.51617 -1.33697,-5.17662 -0.73491,-1.66044 -1.6195,-4.84674 -1.96662,-7.0798 -0.86849,-5.587 -2.96969,-17.02584 -4.02679,-21.92452 -2.43824,-11.29896 -3.73466,-25.97985 -2.36944,-26.8236 0.42558,-0.26303 0.57889,-1.27775 0.34098,-2.25525 -0.23792,-0.9775 0.15474,-5.43197 0.87387,-9.89807 0.71912,-4.46611 1.78793,-11.40887 2.37421,-15.42837 0.58627,-4.01949 1.10399,-7.39953 1.15142,-7.51118 0.0474,-0.11165 0.11742,-0.47706 0.15542,-0.81202 0.038,-0.33495 0.36364,-0.97442 0.72321,-1.42103 0.35955,-0.44661 0.62237,-2.11603 0.58363,-3.7096 -0.0387,-1.59356 0.36567,-3.96872 0.89925,-5.27812 0.53357,-1.3094 1.12867,-3.65948 1.32271,-5.22262 0.19402,-1.56314 0.41393,-2.84207 0.48848,-2.84207 0.0745,0 0.27054,-1.64434 0.43614,-3.65408 0.57861,-7.02251 2.04315,-17.47831 2.78656,-19.89448 0.41223,-1.33983 0.96245,-4.08039 1.22278,-6.09014 0.26034,-2.00975 0.6318,-4.3849 0.82472,-5.27813 0.19291,-0.89322 0.68522,-3.26837 1.09431,-5.27812 0.40911,-2.00975 2.1011,-9.50063 3.75877,-16.6464 1.65766,-7.14577 3.12732,-13.72312 3.26711,-14.61634 0.1398,-0.89323 0.68635,-4.73002 1.21327,-8.52621 0.52692,-3.79619 1.41541,-9.18597 1.97612,-11.97728 l 1.01978,-5.07512 -9.90124,0 -9.90283,0 -1.42579,5.07512 c -0.78447,2.79131 -2.06194,7.08487 -2.83731,9.54123 -0.77536,2.45635 -2.08265,6.65855 -2.90551,9.33822 -0.82286,2.67966 -1.79716,5.2202 -2.16485,5.64448 -0.36768,0.42428 -0.6677,1.79802 -0.6677,3.05459 0,1.25657 -0.34611,2.91981 -0.76919,3.69532 -0.42309,0.77551 -1.67388,6.34295 -2.77864,12.3722 -1.10476,6.02924 -2.67705,14.43364 -3.4939,18.67644 -1.24835,6.48402 -1.4697,11.53414 -1.38931,31.66875 0.0644,16.1201 0.40425,24.72394 1.0404,26.30815 0.51993,1.29478 1.16431,6.22779 1.43055,10.96226 0.45449,8.08223 0.37739,8.70299 -1.24816,10.15818 -2.31026,2.06812 -4.5109,1.04334 -9.03531,-4.20918 -3.46761,-4.02564 -7.24086,-12.97414 -7.28438,-17.27444 -0.0115,-1.13886 -0.42849,-2.47915 -0.92622,-2.97688 -1.2028,-1.2028 -2.15377,-18.66598 -1.43054,-26.26851 1.17369,-12.33757 6.00016,-46.55991 6.73404,-47.74737 0.23489,-0.38005 0.62435,-2.84348 0.86595,-5.47478 0.24159,-2.6313 0.6367,-5.88111 0.87705,-7.22094 0.24034,-1.33983 0.56397,-3.34958 0.72003,-4.46611 0.15606,-1.11653 0.86361,-3.67439 1.5717,-5.68413 0.70808,-2.00975 1.29241,-4.4062 1.29891,-5.32571 0.007,-0.91952 0.54805,-2.38115 1.20376,-3.24808 0.65571,-0.86693 1.20382,-2.32035 1.21803,-3.22904 0.0142,-0.9087 0.75778,-3.73116 1.651,-6.27254 2.29672,-6.53456 2.94165,-7.06768 -5.00217,-7.09882 z m -96.976044,0.002 -0.75968,2.39006 a 274.57262,274.57262 0 0 0 7.834724,58.60337 c 0.90983,-2.84741 2.27371,-6.55478 3.18781,-8.61819 1.66941,-3.76837 2.91526,-8.70492 3.68898,-14.61634 0.91769,-7.01152 1.79655,-11.59162 2.59624,-13.53789 0.49039,-1.19347 1.09776,-3.75133 1.34967,-5.68414 1.54436,-11.84892 2.03083,-15.07635 2.52011,-16.70983 l 0.54716,-1.82704 -10.4833,0 -10.481714,0 z m 52.898624,0 c -10.86902,0 -12.63388,0.17672 -12.63388,1.25926 0,0.69209 -0.5517,2.32484 -1.22596,3.62871 -0.67426,1.30387 -1.5706,4.48214 -1.99039,7.06394 -1.9505,11.99571 -7.92622,39.95796 -8.78948,41.12592 -0.3746,0.50682 -1.15103,2.9312 -1.72395,5.38756 -1.97133,8.45188 -6.51074,21.74067 -10.68789,31.7528 a 274.57262,274.57262 0 0 0 9.79023,23.29798 c 0.88075,-1.48426 1.81856,-2.96229 2.58989,-4.05217 3.13428,-4.4287 9.68011,-13.05333 10.35642,-13.64572 0.25494,-0.22331 1.29901,-2.05035 2.32028,-4.0601 1.02129,-2.00975 2.19755,-4.2022 2.61211,-4.87212 1.42767,-2.3071 4.23452,-9.23664 5.40499,-13.34281 0.64517,-2.2633 1.40126,-4.66372 1.68114,-5.33363 0.27988,-0.66992 0.60598,-1.76614 0.72479,-2.43606 0.1188,-0.66991 0.81678,-4.68941 1.55108,-8.93221 0.7343,-4.2428 2.25812,-12.0854 3.38447,-17.42828 1.12635,-5.34289 2.15593,-10.45861 2.28856,-11.36827 0.13264,-0.90967 0.6175,-3.29851 1.07688,-5.30826 0.45938,-2.00975 1.71063,-7.51891 2.7818,-12.24373 1.07117,-4.72482 2.21284,-9.01837 2.53598,-9.54123 0.43919,-0.71062 -2.60282,-0.95158 -12.04707,-0.95158 z m 108.42996,0 -0.49166,3.04507 c -0.27007,1.67479 -0.98009,5.78564 -1.57963,9.13522 -0.59953,3.34958 -1.13854,8.4653 -1.19741,11.36827 -0.0948,4.68014 -1.74784,11.94092 -3.23539,14.21034 -0.29274,0.44661 -0.64798,1.90824 -0.78823,3.24807 -0.14023,1.33983 -0.54477,2.98417 -0.89924,3.65409 -0.86074,1.6267 -2.98423,10.51687 -4.07279,17.0524 -0.48353,2.90297 -1.40433,6.92247 -2.04749,8.93222 -1.52209,4.75623 -3.21427,14.01267 -8.16461,44.66106 -2.40639,14.89843 -3.52552,38.20211 -2.05859,42.88318 0.51634,1.64769 1.461,6.8327 2.09825,11.52211 1.4185,10.43848 2.04105,13.1414 7.75859,33.6988 1.89839,6.82566 2.63948,9.00075 3.31151,9.70458 0.40511,0.42428 0.73903,1.52051 0.74065,2.43606 0.002,0.91555 1.46357,4.54811 3.24808,8.0742 1.78451,3.52608 3.2449,6.91116 3.2449,7.52228 0,0.61113 0.31139,1.74619 0.69308,2.5217 0.38169,0.77551 1.90461,3.9678 3.38447,7.09407 1.47985,3.12627 3.54362,6.71659 4.58505,7.97904 0.005,0.006 0.01,0.0116 0.0143,0.0175 a 274.57262,274.57262 0 0 0 68.7092,18.93655 c -0.76904,-1.37527 -2.38052,-3.77509 -3.81109,-5.64925 -1.55306,-2.03462 -3.45005,-4.91491 -4.21553,-6.401 -0.76546,-1.48608 -2.25008,-3.8327 -3.30041,-5.21468 -1.05034,-1.38199 -1.90952,-2.7764 -1.90952,-3.099 0,-0.3226 -0.91352,-1.78423 -2.03005,-3.24807 -1.11652,-1.46385 -2.03005,-3.36725 -2.03005,-4.22821 0,-0.86096 -1.04528,-2.83515 -2.32186,-4.3884 -1.27659,-1.55324 -3.1074,-4.37145 -4.06961,-6.26302 -0.9622,-1.89155 -2.58973,-3.99031 -3.61603,-4.66276 -1.0263,-0.67246 -2.72981,-2.77813 -3.78571,-4.68022 -1.05591,-1.90208 -2.71054,-4.55523 -3.6763,-5.89506 -0.96575,-1.33983 -2.3731,-3.79043 -3.12754,-5.44624 -0.75443,-1.65582 -1.72703,-3.23003 -2.16169,-3.49866 -0.43465,-0.26864 -0.78981,-1.53391 -0.78981,-2.81036 0,-1.27644 -0.7656,-4.08556 -1.70175,-6.24398 -0.93615,-2.15843 -2.10096,-4.8388 -2.58673,-5.95533 -1.84552,-4.24182 -6.33998,-30.09427 -6.1409,-35.32284 0.051,-1.33983 -0.31424,-4.44581 -0.81202,-6.90216 -0.65572,-3.23559 -0.67039,-8.0458 -0.0524,-17.45842 0.46921,-7.14577 0.92036,-14.63665 1.00234,-16.64639 0.082,-2.00975 0.40795,-4.05297 0.7232,-4.54065 1.48885,-2.3032 3.76319,-18.84497 4.23297,-30.78219 1.00617,-25.5671 1.37911,-32.40059 1.80801,-33.09455 0.91111,-1.47421 2.84633,-15.74055 3.49549,-25.77685 0.36108,-5.58264 0.92347,-12.25134 1.24974,-14.81935 l 0.59316,-4.66912 -17.1095,0 -17.1095,0 z m 70.8582,0 c -16.72244,0 -18.1545,0.1118 -18.20858,1.42103 -0.0842,2.03794 -0.39189,5.62262 -1.58123,18.47344 -0.57867,6.25255 -1.04078,12.09909 -1.0277,12.99231 0.39931,27.32314 0.17346,53.91549 -0.49324,58.05938 -0.83084,5.16415 -1.97879,24.34945 -2.96578,49.56648 -0.52712,13.46767 0.16968,21.4468 2.93881,33.6655 4.05113,17.87547 5.01078,21.28107 6.75309,23.95457 1.01869,1.56313 4.29805,7.77508 7.28755,13.80432 5.31405,10.71739 8.87247,16.29102 14.95892,23.42961 1.6578,1.94439 3.15212,3.95414 3.32104,4.46611 0.16892,0.51198 2.00943,2.94072 4.09023,5.39708 2.08079,2.45635 5.1419,6.34346 6.80066,8.63721 1.65877,2.29376 4.01886,4.82325 5.2464,5.6207 2.79224,1.81395 6.28447,4.85383 9.4984,8.27086 l 0,0.002 c 2.44759,2.60228 2.57131,2.635 9.99006,2.63906 l 5.97278,0.003 c 0,0.008 10e-6,0.0156 0,0.0238 a 274.57262,274.57262 0 0 0 24.53187,-2.26795 c -1.72185,-11.77244 -8.72339,-22.77731 -20.38137,-30.78694 -1.04499,-0.71797 -2.00553,-1.33496 -2.71202,-1.75726 -0.1255,-7.36483 -0.36291,-12.45057 -0.66293,-12.75441 -0.41896,-0.42428 -3.17496,-5.5173 -6.12504,-11.31752 -4.72874,-9.2973 -10.09968,-23.03151 -11.29056,-28.86951 -0.75669,-3.70944 -4.3959,-19.83745 -5.21468,-23.11083 -0.44686,-1.78644 -1.4558,-6.90216 -2.24257,-11.36827 -0.78678,-4.4661 -1.69675,-8.6683 -2.02212,-9.33822 -0.55299,-1.13858 -0.92193,-36.41062 -0.58999,-56.43534 0.17343,-10.46167 -1.34577,-31.06427 -2.6343,-35.72885 -3.88656,-14.06962 -5.99632,-30.41006 -5.37169,-41.59221 l 0.28389,-5.0989 -18.1499,0 z m 36.0048,0 0.52654,10.35324 c 0.55783,10.95708 1.88077,18.52981 4.62312,26.45407 2.56863,7.42224 3.87454,18.72567 4.42329,38.30447 0.27539,9.82544 0.86589,22.06663 1.31318,27.20265 0.44732,5.13602 0.93457,11.34797 1.08322,13.80433 0.32157,5.31357 1.46291,13.30009 3.69533,25.87994 0.35365,1.99292 0.63864,3.68583 0.90718,5.28288 l 0.003,15.98663 1.53682,-2.50108 c 9.66759,-15.72737 10.25154,-21.99311 2.66285,-28.59355 l -2.77863,-2.41544 c 0.0296,-5.63718 0.0522,-12.51062 0.0714,-19.63278 l 4.92604,2.66444 c 3.33711,1.80477 9.60706,4.65526 13.93279,6.33438 8.98418,3.48738 10.96666,3.53157 20.36868,0.45676 9.80777,-3.20748 19.6917,-10.497 32.50932,-23.97995 11.71174,-12.31965 14.93817,-19.07939 14.9383,-31.28971 7e-5,-8.08599 -1.02015,-12.63955 -4.55967,-20.36233 -5.60535,-12.2301 -16.9031,-19.65758 -33.19923,-21.82618 -2.27397,-0.30262 -4.51123,-0.44646 -6.86727,-0.41711 -5.18327,0.0645 -10.93688,0.96715 -18.8969,2.86426 -3.92966,0.93656 -11.08704,2.60566 -15.90415,3.7096 l -7.20033,1.651 0,-15.0398 c 4.38566,-0.88972 15.66503,-6.92079 19.88813,-10.79098 4.64441,-4.25631 5.00104,-4.09182 -8.8434,-4.09182 l -11.04473,0 0,-0.008 -9.05751,0 -9.0575,0 z m 66.41906,0.008 1.24657,1.96502 c 2.22888,3.51364 4.90053,6.01616 9.82671,9.20342 4.66013,3.01514 16.45327,8.41629 20.8857,9.56502 6.37681,1.65261 11.55111,0.29135 16.06593,-4.22346 3.44716,-3.44717 5.19749,-7.27878 6.15358,-13.47285 l 0.46945,-3.03715 -27.32477,0 -27.32317,0 z m 139.25655,0 c -26.83042,0 -29.29262,0.10311 -32.78687,1.37346 -2.07781,0.75538 -8.51638,2.85583 -14.30867,4.66751 -11.16893,3.49341 -16.67407,6.03805 -24.67302,11.40476 -12.86365,8.63057 -17.52156,17.3059 -15.82327,29.47693 1.97495,14.15361 8.61418,22.92649 20.66209,27.30098 4.54587,1.65056 16.68386,4.80212 23.93553,6.21544 9.07147,1.76798 27.32737,0.10922 33.83996,-3.07521 4.73977,-2.31758 24.56585,-29.7331 30.81074,-42.60405 4.824,-9.94246 6.47405,-16.19644 6.9545,-26.36526 l 0.39649,-8.39456 -29.00748,0 z m 40.95781,0 0,3.46694 c 0,1.90718 0.20588,5.44465 0.45834,7.86009 0.55218,5.28298 -0.50898,5.10122 15.1191,2.58832 9.53299,-1.53285 11.64461,-2.108 14.07395,-3.83648 0.74747,-0.53183 1.87723,-1.24471 3.09899,-1.97295 a 274.57262,274.57262 0 0 0 0.40284,-8.0742 l -9.75374,-0.01 -23.39948,-0.0222 z m 32.11123,20.87619 c -6.70551,2.92595 -14.34354,6.57144 -18.53211,9.00675 -7.60555,4.422 -9.83493,9.84847 -6.23923,15.18413 1.96395,2.91431 8.98017,8.67404 12.97486,10.65141 1.97713,0.97868 3.80734,1.40926 5.95693,1.33381 a 274.57262,274.57262 0 0 0 5.83955,-36.1761 z m -41.79202,22.03079 c -2.3668,-0.019 -4.71659,0.28718 -6.23923,0.92462 -3.0738,1.2868 -7.43214,6.22956 -9.52696,10.80525 -7.95119,17.36768 -7.51454,50.49669 0.9167,69.64651 2.4005,5.45222 4.94689,8.539 8.37077,10.14548 2.98219,1.39923 7.27507,1.63879 11.35083,0.85326 a 274.57262,274.57262 0 0 0 15.54731,-30.19088 c -0.67784,-3.35981 -1.53006,-7.25635 -2.5217,-11.36668 -3.85084,-15.96172 -3.93036,-16.50293 -3.94749,-26.96316 -0.01,-5.8709 -0.34928,-12.11523 -0.75492,-13.8757 -0.94499,-4.10118 -3.62796,-7.60267 -6.85935,-8.95283 -1.58533,-0.6624 -3.96917,-1.00711 -6.33596,-1.02612 z m -101.74507,43.71899 c -18.96138,0.3714 -45.7188,21.07687 -48.27392,38.51858 -0.71428,4.87582 1.16802,10.69912 4.5343,14.02953 3.11944,3.08619 11.7264,8.00751 23.55016,13.46493 7.18769,3.31758 8.82462,3.8152 11.61567,3.5399 4.40502,-0.43449 6.63327,-1.56329 8.15033,-4.13147 0.70179,-1.18804 4.87876,-6.38647 9.28271,-11.55065 13.43241,-15.75116 17.00307,-22.43242 17.04448,-31.89555 0.0267,-6.10623 -1.347,-9.54472 -5.33363,-13.34915 -3.24852,-3.10006 -12.79142,-7.85947 -16.89064,-8.42312 -1.18532,-0.16298 -2.41537,-0.22776 -3.67946,-0.203 z m 54.05162,2.28222 c -2.34123,-0.0371 -4.64816,0.5968 -6.74357,1.98246 -7.91233,5.23229 -21.11838,31.85017 -23.42168,47.20972 -1.03975,6.93348 1.61907,11.80537 8.28672,15.18413 4.42598,2.24281 17.25845,7.34999 20.57485,8.18839 3.43672,0.86883 9.92863,0.32891 12.70526,-1.05625 6.46003,-3.22269 10.97514,-12.17348 10.94956,-21.70408 -0.0208,-7.72821 -4.50393,-32.8518 -6.73087,-37.72083 -3.43538,-7.51114 -9.63713,-11.9887 -15.62027,-12.08354 z m -413.1957,22.0924 c -1.44651,0.0226 -2.79914,1.11573 -4.79441,3.59858 -2.42006,3.01144 -4.61841,7.80501 -6.42003,13.41418 a 274.57262,274.57262 0 0 0 19.32987,30.31274 c -0.57382,-3.29622 -0.97306,-6.77353 -1.2212,-10.54673 -0.22028,-3.34958 -0.74823,-10.10964 -1.17362,-15.02236 -0.4254,-4.91272 -0.77987,-11.12466 -0.78823,-13.80433 -0.0163,-5.23338 -0.32385,-6.03035 -2.83255,-7.34941 -0.76482,-0.40213 -1.44233,-0.61295 -2.09983,-0.60267 z m 279.60901,23.07118 c -7.82726,0.0461 -10.167,3.31569 -28.07652,39.23227 l -11.06535,22.19096 0.19825,11.03364 0.19824,11.03203 4.16319,2.85793 c 2.29014,1.57187 8.39973,5.64903 13.57594,9.06068 10.74011,7.07884 10.41853,7.00915 25.84347,5.56043 33.64348,-3.15984 52.80287,-16.74553 60.41931,-42.84354 4.31848,-14.79743 1.97702,-22.61007 -8.48338,-28.30014 -14.39431,-7.82997 -26.62262,-15.0742 -40.14103,-23.7801 -6.20621,-3.99682 -11.91683,-6.07185 -16.63212,-6.04416 z m 97.85942,27.47702 c -2.21303,-0.008 -3.13418,0.36281 -4.7833,1.47813 -3.1942,2.16028 -6.46967,8.31215 -10.06777,18.91117 -4.39887,12.95788 -5.84383,19.28891 -5.92996,25.97669 -0.12243,9.50652 2.63068,13.3199 11.93605,16.53537 4.33684,1.4986 6.8832,1.61388 12.06452,0.54717 0.10071,-0.0207 0.20203,-0.0479 0.30291,-0.0697 a 274.57262,274.57262 0 0 0 25.91167,-19.655 c 3.08048,-5.5203 4.3646,-11.6475 4.3646,-19.76917 0,-8.68189 -2.32219,-12.56979 -10.30408,-17.24749 -5.05237,-2.96089 -15.34418,-6.22376 -20.77627,-6.58655 -1.09941,-0.0734 -1.98069,-0.11783 -2.71837,-0.12053 z m 69.18659,1.96344 c -3.85273,4.10686 -7.47096,8.56313 -10.59273,13.13821 a 274.57262,274.57262 0 0 0 10.59273,-13.13821 z m -101.04407,71.491 c -7.42252,0.009 -12.8632,0.97429 -24.01166,4.26469 -3.92967,1.1598 -10.52034,3.10452 -14.64649,4.3202 -4.12614,1.21569 -9.90971,2.92964 -12.85274,3.80951 -7.75596,2.31874 -12.47751,5.66098 -14.86693,10.52611 -1.3425,2.7335 -1.74685,3.80885 -1.86194,8.58965 a 274.57262,274.57262 0 0 0 83.08132,-29.33737 c -4.19193,-1.48359 -9.0421,-2.17969 -14.84156,-2.17279 z"
       id="path3401"
       inkscape:connector-curvature="0" />
    <path
       style="fill:#000000"
       d=""
       id="path3513"
       inkscape:connector-curvature="0" />
    <g
       style="font-style:normal;font-variant:normal;font-weight:normal;font-stretch:normal;font-size:40px;line-height:125%;font-family:Barlow;-inkscape-font-specification:Barlow;letter-spacing:0px;word-spacing:0px;fill:#005555;fill-opacity:1;stroke:none;stroke-width:1px;stroke-linecap:butt;stroke-linejoin:miter;stroke-opacity:1"
       id="text6152"
       transform="matrix(1.2612192,0,0,1.1453437,138.28407,-368.21341)">
      <path
         d="m -33.375035,713.37915 q -2.88,0 -2.88,-2.88 l 0,-120.24 q 0,-2.88 2.88,-2.88 l 15.12,0 q 2.88,0 2.88,2.88 l 0,120.24 q 0,2.88 -2.88,2.88 l -15.12,0 z"
         style="font-style:normal;font-variant:normal;font-weight:600;font-stretch:normal;font-size:180px;font-family:Barlow;-inkscape-font-specification:'Barlow Semi-Bold';text-align:center;text-anchor:middle;fill:#005555;fill-opacity:1"
         id="path6157"
         inkscape:connector-curvature="0" />
      <path
         d="m 53.51434,715.17915 q -13.5,0 -23.94,-5.4 -10.44,-5.58 -16.2,-15.66 -5.5799998,-10.08 -5.5799998,-23.22 l 0,-41.04 q 0,-12.96 5.7599998,-22.86 5.76,-10.08 16.02,-15.48 10.44,-5.58 23.94,-5.58 13.68,0 23.94,5.58 10.44,5.4 16.2,15.48 5.76,9.9 5.76,22.86 l 0,41.04 q 0,13.14 -5.76,23.22 -5.76,10.08 -16.2,15.66 -10.26,5.4 -23.94,5.4 z m 0,-18 q 11.34,0 18.18,-7.02 6.84,-7.02 6.84,-18.54 l 0,-41.94 q 0,-11.7 -6.84,-18.72 -6.84,-7.02 -18.18,-7.02 -11.16,0 -18,7.02 -6.84,7.02 -6.84,18.72 l 0,41.94 q 0,11.52 6.84,18.54 6.84,7.02 18,7.02 z"
         style="font-style:normal;font-variant:normal;font-weight:600;font-stretch:normal;font-size:180px;font-family:Barlow;-inkscape-font-specification:'Barlow Semi-Bold';text-align:center;text-anchor:middle;fill:#005555;fill-opacity:1"
         id="path6159"
         inkscape:connector-curvature="0" />
      <path
         d="m 193.93122,713.37915 q -2.52,0 -3.42,-2.16 l -23.58,-51.48 q -0.18,-0.72 -1.26,-0.72 l -21.06,0 q -1.08,0 -1.08,1.08 l 0,50.4 q 0,2.88 -2.88,2.88 l -15.12,0 q -2.88,0 -2.88,-2.88 l 0,-120.42 q 0,-2.88 2.88,-2.88 l 48.78,0 q 10.98,0 19.44,4.68 8.46,4.5 13.14,12.96 4.68,8.28 4.68,19.08 0,12.42 -6.48,21.24 -6.3,8.64 -17.46,11.88 -0.54,0.18 -0.72,0.72 -0.18,0.36 0.18,0.72 l 24.84,51.48 0.36,1.44 q 0,1.98 -2.52,1.98 l -15.84,0 z m -49.32,-108.18 q -1.08,0 -1.08,1.08 l 0,35.46 q 0,1.08 1.08,1.08 l 26.82,0 q 8.64,0 13.86,-5.04 5.4,-5.22 5.4,-13.5 0,-8.46 -5.4,-13.68 -5.22,-5.4 -13.86,-5.4 l -26.82,0 z"
         style="font-style:normal;font-variant:normal;font-weight:600;font-stretch:normal;font-size:180px;font-family:Barlow;-inkscape-font-specification:'Barlow Semi-Bold';text-align:center;text-anchor:middle;fill:#005555;fill-opacity:1"
         id="path6161"
         inkscape:connector-curvature="0" />
      <path
         d="m 271.22715,697.17915 q 6.66,-0.18 11.52,-2.7 5.04,-2.7 8.1,-7.2 0.9,-1.44 2.34,-1.44 0.9,0 1.62,0.54 l 8.64,6.84 q 1.26,1.26 1.26,2.34 0,0.72 -0.54,1.62 -5.22,8.28 -14.22,12.96 -9,4.68 -20.7,4.68 -14.22,0 -23.94,-6.66 -9.54,-6.84 -13.86,-18.9 -3.6,-9.9 -3.6,-22.32 0,-12.42 1.98,-19.08 3.42,-12.78 13.5,-20.34 10.08,-7.56 24.48,-7.56 33.66,0 39.42,36.9 0.9,5.94 1.26,14.76 0,2.88 -2.88,2.88 l -55.8,0 q -1.08,0 -1.08,1.08 0,4.86 1.08,7.92 1.98,6.48 7.56,10.08 5.58,3.6 13.86,3.6 z m -3.6,-59.22 q -6.84,0 -11.34,3.42 -4.32,3.24 -5.94,9.18 -1.26,3.6 -1.44,7.56 -0.18,1.08 0.9,1.08 l 36.18,0 q 1.08,0 1.08,-1.08 -0.72,-5.4 -1.08,-6.48 -1.62,-6.3 -6.48,-9.9 -4.68,-3.78 -11.88,-3.78 z"
         style="font-style:normal;font-variant:normal;font-weight:600;font-stretch:normal;font-size:180px;font-family:Barlow;-inkscape-font-specification:'Barlow Semi-Bold';text-align:center;text-anchor:middle;fill:#005555;fill-opacity:1"
         id="path6163"
         inkscape:connector-curvature="0" />
      <path
         d="m 384.08153,624.27915 q 0,-2.88 2.88,-2.88 l 15.12,0 q 2.88,0 2.88,2.88 l 0,82.98 q 0,22.5 -12.96,32.22 -12.96,9.72 -33.84,9.72 -5.04,0 -10.26,-0.54 -2.52,-0.18 -2.52,-3.24 l 0.54,-13.32 q 0,-1.26 0.9,-1.98 0.9,-0.72 2.34,-0.54 6.12,0.36 8.46,0.36 13.68,0 19.98,-5.4 6.48,-5.22 6.48,-17.82 l 0,-1.08 q 0,-0.72 -0.36,-0.9 -0.36,-0.18 -0.9,0.36 -7.38,7.74 -20.7,7.74 -11.7,0 -21.42,-5.94 -9.72,-5.94 -13.5,-18.18 -2.34,-8.46 -2.34,-21.78 0,-14.94 2.88,-22.86 3.6,-10.98 12.42,-17.46 8.82,-6.66 20.7,-6.66 13.86,0 21.96,8.1 0.54,0.54 0.9,0.36 0.36,-0.18 0.36,-0.9 l 0,-3.24 z m -1.26,58.5 q 0.72,-2.7 0.9,-5.76 0.36,-3.24 0.36,-10.26 0,-6.84 -0.36,-9.72 -0.18,-3.06 -1.08,-5.94 -1.44,-5.94 -5.94,-9.54 -4.32,-3.6 -11.16,-3.6 -6.48,0 -10.98,3.6 -4.5,3.6 -6.48,9.54 -2.16,5.04 -2.16,15.84 0,11.16 1.8,15.66 1.8,5.76 6.48,9.54 4.86,3.6 11.52,3.6 7.02,0 11.34,-3.6 4.32,-3.6 5.76,-9.36 z"
         style="font-style:normal;font-variant:normal;font-weight:600;font-stretch:normal;font-size:180px;font-family:Barlow;-inkscape-font-specification:'Barlow Semi-Bold';text-align:center;text-anchor:middle;fill:#005555;fill-opacity:1"
         id="path6165"
         inkscape:connector-curvature="0" />
    </g>
  </g>
</svg>
